<?xml version="1.0" encoding="UTF-8" standalone="no"?>
<!DOCTYPE svg PUBLIC "-//W3C//DTD SVG 1.1//EN"
 "http://www.w3.org/Graphics/SVG/1.1/DTD/svg11.dtd">
<!-- Generated by graphviz version 2.38.0 (20140413.2041)
 -->
<!-- Title: WFST Pages: 1 -->
<svg width="612pt" height="75pt"
 viewBox="0.00 0.00 612.00 74.97" xmlns="http://www.w3.org/2000/svg" xmlns:xlink="http://www.w3.org/1999/xlink">
<g id="graph0" class="graph" transform="scale(0.387468 0.387468) rotate(0) translate(4 189.498)">
<title>WFST</title>
<polygon fill="white" stroke="none" points="-4,4 -4,-189.498 1575.49,-189.498 1575.49,4 -4,4"/>
<!-- 0 -->
<g id="node1" class="node"><title>0</title>
<ellipse fill="none" stroke="black" stroke-width="2" cx="27.5" cy="-83" rx="18" ry="18"/>
<text text-anchor="middle" x="27.5" y="-79.3" font-family="Times,serif" font-size="14.00">0</text>
</g>
<!-- 0&#45;&gt;0 -->
<g id="edge1" class="edge"><title>0&#45;&gt;0</title>
<path fill="none" stroke="black" d="M17.3486,-98.1666C14.2725,-108.664 17.6562,-119 27.5,-119 33.96,-119 37.6378,-114.549 38.5337,-108.522"/>
<polygon fill="black" stroke="black" points="41.9878,-107.833 37.6514,-98.1666 35.0131,-108.428 41.9878,-107.833"/>
<text text-anchor="middle" x="27.5" y="-122.8" font-family="Times,serif" font-size="14.00">&lt;blk&gt;:0/0</text>
</g>
<!-- 1 -->
<g id="node2" class="node"><title>1</title>
<ellipse fill="none" stroke="black" stroke-width="2" cx="278.5" cy="-83" rx="18" ry="18"/>
<text text-anchor="middle" x="278.5" y="-79.3" font-family="Times,serif" font-size="14.00">1</text>
</g>
<!-- 0&#45;&gt;1 -->
<g id="edge2" class="edge"><title>0&#45;&gt;1</title>
<path fill="none" stroke="black" d="M45.4187,-84.8838C50.281,-85.3444 55.595,-85.7706 60.5,-86 142.632,-89.8415 163.368,-89.8415 245.5,-86 247.033,-85.9283 248.606,-85.8374 250.192,-85.7322"/>
<polygon fill="black" stroke="black" points="250.899,-89.1862 260.581,-84.8838 250.33,-82.2094 250.899,-89.1862"/>
<text text-anchor="middle" x="159.5" y="-91.8" font-family="Times,serif" font-size="14.00">▁O:123/0</text>
</g>
<!-- 2 -->
<g id="node3" class="node"><title>2</title>
<ellipse fill="none" stroke="black" stroke-width="2" cx="159.5" cy="-25" rx="18" ry="18"/>
<text text-anchor="middle" x="159.5" y="-21.3" font-family="Times,serif" font-size="14.00">2</text>
</g>
<!-- 0&#45;&gt;2 -->
<g id="edge3" class="edge"><title>0&#45;&gt;2</title>
<path fill="none" stroke="black" d="M44.181,-76.0038C66.3371,-66.1188 107.039,-47.9593 133.422,-36.1888"/>
<polygon fill="black" stroke="black" points="135.057,-39.2918 142.763,-32.021 132.205,-32.8991 135.057,-39.2918"/>
<text text-anchor="middle" x="88.5" y="-70.8" font-family="Times,serif" font-size="14.00">▁O:123/0</text>
</g>
<!-- 3 -->
<g id="node4" class="node"><title>3</title>
<ellipse fill="none" stroke="black" stroke-width="2" cx="481.5" cy="-76" rx="18" ry="18"/>
<text text-anchor="middle" x="481.5" y="-72.3" font-family="Times,serif" font-size="14.00">3</text>
</g>
<!-- 1&#45;&gt;3 -->
<g id="edge4" class="edge"><title>1&#45;&gt;3</title>
<path fill="none" stroke="black" d="M296.637,-82.4032C331.571,-81.1866 411.259,-78.4114 453.329,-76.9462"/>
<polygon fill="black" stroke="black" points="453.534,-80.4413 463.406,-76.5953 453.29,-73.4456 453.534,-80.4413"/>
<text text-anchor="middle" x="383.5" y="-82.8" font-family="Times,serif" font-size="14.00">H:88/0</text>
</g>
<!-- 4 -->
<g id="node5" class="node"><title>4</title>
<ellipse fill="none" stroke="black" stroke-width="2" cx="383.5" cy="-18" rx="18" ry="18"/>
<text text-anchor="middle" x="383.5" y="-14.3" font-family="Times,serif" font-size="14.00">4</text>
</g>
<!-- 1&#45;&gt;4 -->
<g id="edge5" class="edge"><title>1&#45;&gt;4</title>
<path fill="none" stroke="black" d="M294.257,-73.6871C311.237,-62.9717 339.336,-45.2395 359.26,-32.6659"/>
<polygon fill="black" stroke="black" points="361.181,-35.5924 367.77,-27.2956 357.445,-29.6726 361.181,-35.5924"/>
<text text-anchor="middle" x="330.5" y="-64.8" font-family="Times,serif" font-size="14.00">H:88/0</text>
</g>
<!-- 2&#45;&gt;1 -->
<g id="edge6" class="edge"><title>2&#45;&gt;1</title>
<path fill="none" stroke="black" d="M176.279,-32.8221C195.927,-42.5622 229.712,-59.3104 252.802,-70.7567"/>
<polygon fill="black" stroke="black" points="251.457,-73.9961 261.971,-75.3018 254.566,-67.7244 251.457,-73.9961"/>
<text text-anchor="middle" x="224" y="-70.8" font-family="Times,serif" font-size="14.00">▁O:0/0</text>
</g>
<!-- 2&#45;&gt;2 -->
<g id="edge7" class="edge"><title>2&#45;&gt;2</title>
<path fill="none" stroke="black" d="M148.792,-39.7917C145.306,-50.4165 148.875,-61 159.5,-61 166.639,-61 170.592,-56.2224 171.361,-49.8647"/>
<polygon fill="black" stroke="black" points="174.822,-49.3288 170.208,-39.7917 167.868,-50.1248 174.822,-49.3288"/>
<text text-anchor="middle" x="159.5" y="-64.8" font-family="Times,serif" font-size="14.00">▁O:0/0</text>
</g>
<!-- 5 -->
<g id="node6" class="node"><title>5</title>
<ellipse fill="none" stroke="black" stroke-width="2" cx="616.5" cy="-76" rx="18" ry="18"/>
<text text-anchor="middle" x="616.5" y="-72.3" font-family="Times,serif" font-size="14.00">5</text>
</g>
<!-- 3&#45;&gt;5 -->
<g id="edge8" class="edge"><title>3&#45;&gt;5</title>
<path fill="none" stroke="black" d="M499.615,-76C522.06,-76 561.701,-76 588.285,-76"/>
<polygon fill="black" stroke="black" points="588.451,-79.5001 598.451,-76 588.451,-72.5001 588.451,-79.5001"/>
<text text-anchor="middle" x="542" y="-79.8" font-family="Times,serif" font-size="14.00">&lt;blk&gt;:0/0</text>
</g>
<!-- 6 -->
<g id="node7" class="node"><title>6</title>
<ellipse fill="none" stroke="black" stroke-width="2" cx="905.5" cy="-112" rx="18" ry="18"/>
<text text-anchor="middle" x="905.5" y="-108.3" font-family="Times,serif" font-size="14.00">6</text>
</g>
<!-- 3&#45;&gt;6 -->
<g id="edge9" class="edge"><title>3&#45;&gt;6</title>
<path fill="none" stroke="black" d="M495.933,-87.1423C514.478,-101.723 549.603,-126.532 584.5,-136 690.576,-164.779 823.204,-134.948 878.462,-119.75"/>
<polygon fill="black" stroke="black" points="879.481,-123.099 888.154,-117.013 877.579,-116.362 879.481,-123.099"/>
<text text-anchor="middle" x="695.5" y="-151.8" font-family="Times,serif" font-size="14.00">▁YE:180/0</text>
</g>
<!-- 7 -->
<g id="node8" class="node"><title>7</title>
<ellipse fill="none" stroke="black" stroke-width="2" cx="774.5" cy="-25" rx="18" ry="18"/>
<text text-anchor="middle" x="774.5" y="-21.3" font-family="Times,serif" font-size="14.00">7</text>
</g>
<!-- 3&#45;&gt;7 -->
<g id="edge10" class="edge"><title>3&#45;&gt;7</title>
<path fill="none" stroke="black" d="M497.854,-67.7141C517.356,-57.6577 552.348,-41.1593 584.5,-34 640.97,-21.4258 709.192,-21.893 746.271,-23.4089"/>
<polygon fill="black" stroke="black" points="746.147,-26.9069 756.299,-23.877 746.473,-19.9145 746.147,-26.9069"/>
<text text-anchor="middle" x="616.5" y="-37.8" font-family="Times,serif" font-size="14.00">▁YE:180/0</text>
</g>
<!-- 4&#45;&gt;3 -->
<g id="edge11" class="edge"><title>4&#45;&gt;3</title>
<path fill="none" stroke="black" d="M399.5,-27.0625C414.858,-36.3413 438.952,-50.8981 456.875,-61.7263"/>
<polygon fill="black" stroke="black" points="455.236,-64.8256 465.605,-67.0011 458.856,-58.8342 455.236,-64.8256"/>
<text text-anchor="middle" x="433" y="-60.8" font-family="Times,serif" font-size="14.00">H:0/0</text>
</g>
<!-- 4&#45;&gt;4 -->
<g id="edge12" class="edge"><title>4&#45;&gt;4</title>
<path fill="none" stroke="black" d="M375.135,-34.2903C373.118,-44.3892 375.906,-54 383.5,-54 388.365,-54 391.257,-50.0557 392.178,-44.5656"/>
<polygon fill="black" stroke="black" points="395.668,-44.1791 391.865,-34.2903 388.671,-44.3922 395.668,-44.1791"/>
<text text-anchor="middle" x="383.5" y="-57.8" font-family="Times,serif" font-size="14.00">H:0/0</text>
</g>
<!-- 5&#45;&gt;5 -->
<g id="edge13" class="edge"><title>5&#45;&gt;5</title>
<path fill="none" stroke="black" d="M604.576,-89.667C599.807,-100.656 603.781,-112 616.5,-112 625.244,-112 629.855,-106.638 630.334,-99.7163"/>
<polygon fill="black" stroke="black" points="633.729,-98.8377 628.424,-89.667 626.852,-100.145 633.729,-98.8377"/>
<text text-anchor="middle" x="616.5" y="-115.8" font-family="Times,serif" font-size="14.00">&lt;blk&gt;:0/0</text>
</g>
<!-- 5&#45;&gt;6 -->
<g id="edge14" class="edge"><title>5&#45;&gt;6</title>
<path fill="none" stroke="black" d="M634.594,-78.1442C682.648,-84.1719 819.223,-101.303 877.554,-108.62"/>
<polygon fill="black" stroke="black" points="877.138,-112.095 887.496,-109.867 878.009,-105.15 877.138,-112.095"/>
<text text-anchor="middle" x="774.5" y="-102.8" font-family="Times,serif" font-size="14.00">▁YE:180/0</text>
</g>
<!-- 5&#45;&gt;7 -->
<g id="edge15" class="edge"><title>5&#45;&gt;7</title>
<path fill="none" stroke="black" d="M633.9,-70.6385C660.864,-61.8231 714.795,-44.1921 747.161,-33.6108"/>
<polygon fill="black" stroke="black" points="748.433,-36.8774 756.85,-30.4432 746.258,-30.2239 748.433,-36.8774"/>
<text text-anchor="middle" x="695.5" y="-63.8" font-family="Times,serif" font-size="14.00">▁YE:180/0</text>
</g>
<!-- 8 -->
<g id="node9" class="node"><title>8</title>
<ellipse fill="none" stroke="black" stroke-width="2" cx="1108.5" cy="-105" rx="18" ry="18"/>
<text text-anchor="middle" x="1108.5" y="-101.3" font-family="Times,serif" font-size="14.00">8</text>
</g>
<!-- 6&#45;&gt;8 -->
<g id="edge16" class="edge"><title>6&#45;&gt;8</title>
<path fill="none" stroke="black" d="M923.637,-111.403C958.571,-110.187 1038.26,-107.411 1080.33,-105.946"/>
<polygon fill="black" stroke="black" points="1080.53,-109.441 1090.41,-105.595 1080.29,-102.446 1080.53,-109.441"/>
<text text-anchor="middle" x="1010.5" y="-111.8" font-family="Times,serif" font-size="14.00">A:15/0</text>
</g>
<!-- 9 -->
<g id="node10" class="node"><title>9</title>
<ellipse fill="none" stroke="black" stroke-width="2" cx="1010.5" cy="-47" rx="18" ry="18"/>
<text text-anchor="middle" x="1010.5" y="-43.3" font-family="Times,serif" font-size="14.00">9</text>
</g>
<!-- 6&#45;&gt;9 -->
<g id="edge17" class="edge"><title>6&#45;&gt;9</title>
<path fill="none" stroke="black" d="M921.257,-102.687C938.237,-91.9717 966.336,-74.2395 986.26,-61.6659"/>
<polygon fill="black" stroke="black" points="988.181,-64.5924 994.77,-56.2956 984.445,-58.6726 988.181,-64.5924"/>
<text text-anchor="middle" x="957.5" y="-93.8" font-family="Times,serif" font-size="14.00">A:15/0</text>
</g>
<!-- 7&#45;&gt;6 -->
<g id="edge18" class="edge"><title>7&#45;&gt;6</title>
<path fill="none" stroke="black" d="M790.876,-32.9652C810.515,-43.4105 845.224,-62.7944 872.5,-83 876.578,-86.0208 880.736,-89.4716 884.648,-92.9138"/>
<polygon fill="black" stroke="black" points="882.478,-95.6723 892.225,-99.8267 887.196,-90.5011 882.478,-95.6723"/>
<text text-anchor="middle" x="847" y="-86.8" font-family="Times,serif" font-size="14.00">▁YE:0/0</text>
</g>
<!-- 7&#45;&gt;7 -->
<g id="edge19" class="edge"><title>7&#45;&gt;7</title>
<path fill="none" stroke="black" d="M762.744,-39.0417C758.347,-49.9126 762.266,-61 774.5,-61 782.911,-61 787.392,-55.7595 787.942,-48.9516"/>
<polygon fill="black" stroke="black" points="791.384,-48.3132 786.256,-39.0417 784.483,-49.4871 791.384,-48.3132"/>
<text text-anchor="middle" x="774.5" y="-64.8" font-family="Times,serif" font-size="14.00">▁YE:0/0</text>
</g>
<!-- 10 -->
<g id="node11" class="node"><title>10</title>
<ellipse fill="none" stroke="black" stroke-width="2" cx="1313.99" cy="-97" rx="19.4965" ry="19.4965"/>
<text text-anchor="middle" x="1313.99" y="-93.3" font-family="Times,serif" font-size="14.00">10</text>
</g>
<!-- 8&#45;&gt;10 -->
<g id="edge20" class="edge"><title>8&#45;&gt;10</title>
<path fill="none" stroke="black" d="M1126.5,-104.332C1161.37,-102.961 1241.33,-99.8175 1284.35,-98.1262"/>
<polygon fill="black" stroke="black" points="1284.58,-101.62 1294.44,-97.7295 1284.31,-94.6251 1284.58,-101.62"/>
<text text-anchor="middle" x="1214" y="-104.8" font-family="Times,serif" font-size="14.00">H:88/0</text>
</g>
<!-- 11 -->
<g id="node12" class="node"><title>11</title>
<ellipse fill="none" stroke="black" stroke-width="2" cx="1214" cy="-39" rx="19.4965" ry="19.4965"/>
<text text-anchor="middle" x="1214" y="-35.3" font-family="Times,serif" font-size="14.00">11</text>
</g>
<!-- 8&#45;&gt;11 -->
<g id="edge21" class="edge"><title>8&#45;&gt;11</title>
<path fill="none" stroke="black" d="M1124.33,-95.5438C1141.1,-84.849 1168.67,-67.2703 1188.62,-54.5489"/>
<polygon fill="black" stroke="black" points="1190.63,-57.4158 1197.18,-49.088 1186.87,-51.5137 1190.63,-57.4158"/>
<text text-anchor="middle" x="1160.5" y="-86.8" font-family="Times,serif" font-size="14.00">H:88/0</text>
</g>
<!-- 9&#45;&gt;8 -->
<g id="edge22" class="edge"><title>9&#45;&gt;8</title>
<path fill="none" stroke="black" d="M1026.5,-56.0625C1041.86,-65.3413 1065.95,-79.8981 1083.87,-90.7263"/>
<polygon fill="black" stroke="black" points="1082.24,-93.8256 1092.61,-96.0011 1085.86,-87.8342 1082.24,-93.8256"/>
<text text-anchor="middle" x="1060" y="-89.8" font-family="Times,serif" font-size="14.00">A:0/0</text>
</g>
<!-- 9&#45;&gt;9 -->
<g id="edge23" class="edge"><title>9&#45;&gt;9</title>
<path fill="none" stroke="black" d="M1002.14,-63.2903C1000.12,-73.3892 1002.91,-83 1010.5,-83 1015.36,-83 1018.26,-79.0557 1019.18,-73.5656"/>
<polygon fill="black" stroke="black" points="1022.67,-73.1791 1018.86,-63.2903 1015.67,-73.3922 1022.67,-73.1791"/>
<text text-anchor="middle" x="1010.5" y="-86.8" font-family="Times,serif" font-size="14.00">A:0/0</text>
</g>
<!-- 12 -->
<g id="node13" class="node"><title>12</title>
<ellipse fill="none" stroke="black" stroke-width="2" cx="1437.99" cy="-133" rx="19.4965" ry="19.4965"/>
<text text-anchor="middle" x="1437.99" y="-129.3" font-family="Times,serif" font-size="14.00">12</text>
</g>
<!-- 10&#45;&gt;12 -->
<g id="edge24" class="edge"><title>10&#45;&gt;12</title>
<path fill="none" stroke="black" d="M1333,-102.312C1353.09,-108.241 1385.84,-117.907 1409.22,-124.806"/>
<polygon fill="black" stroke="black" points="1408.33,-128.193 1418.92,-127.666 1410.32,-121.479 1408.33,-128.193"/>
<text text-anchor="middle" x="1375.99" y="-126.8" font-family="Times,serif" font-size="14.00">&lt;blk&gt;:0/0</text>
</g>
<!-- 13 -->
<g id="node14" class="node"><title>13</title>
<ellipse fill="none" stroke="black" stroke-width="2" cx="1547.99" cy="-102" rx="19.4968" ry="19.4968"/>
<ellipse fill="none" stroke="black" stroke-width="2" cx="1547.99" cy="-102" rx="23.4965" ry="23.4965"/>
<text text-anchor="middle" x="1547.99" y="-98.3" font-family="Times,serif" font-size="14.00">13</text>
</g>
<!-- 10&#45;&gt;13 -->
<g id="edge25" class="edge"><title>10&#45;&gt;13</title>
<path fill="none" stroke="black" d="M1333.45,-94.7305C1360.63,-91.6979 1413.01,-87.031 1457.49,-90 1476.53,-91.2709 1497.7,-94.0466 1514.67,-96.6086"/>
<polygon fill="black" stroke="black" points="1514.22,-100.08 1524.63,-98.1608 1515.29,-93.1634 1514.22,-100.08"/>
<text text-anchor="middle" x="1437.99" y="-93.8" font-family="Times,serif" font-size="14.00">&#45;1:&#45;1/0</text>
</g>
<!-- 11&#45;&gt;10 -->
<g id="edge26" class="edge"><title>11&#45;&gt;10</title>
<path fill="none" stroke="black" d="M1231.18,-48.5775C1246.64,-57.7288 1270.17,-71.6556 1288.04,-82.2283"/>
<polygon fill="black" stroke="black" points="1286.4,-85.3269 1296.79,-87.4083 1289.97,-79.3029 1286.4,-85.3269"/>
<text text-anchor="middle" x="1264" y="-79.8" font-family="Times,serif" font-size="14.00">H:0/0</text>
</g>
<!-- 11&#45;&gt;11 -->
<g id="edge27" class="edge"><title>11&#45;&gt;11</title>
<path fill="none" stroke="black" d="M1205.49,-56.7464C1203.76,-66.9757 1206.59,-76.4983 1214,-76.4983 1218.74,-76.4983 1221.61,-72.5902 1222.6,-67.0919"/>
<polygon fill="black" stroke="black" points="1226.1,-66.7119 1222.5,-56.7464 1219.1,-66.7799 1226.1,-66.7119"/>
<text text-anchor="middle" x="1214" y="-80.2983" font-family="Times,serif" font-size="14.00">H:0/0</text>
</g>
<!-- 12&#45;&gt;12 -->
<g id="edge28" class="edge"><title>12&#45;&gt;12</title>
<path fill="none" stroke="black" d="M1428.85,-150.358C1426.82,-160.733 1429.87,-170.498 1437.99,-170.498 1443.32,-170.498 1446.47,-166.293 1447.43,-160.469"/>
<polygon fill="black" stroke="black" points="1450.92,-160.251 1447.13,-150.358 1443.92,-160.455 1450.92,-160.251"/>
<text text-anchor="middle" x="1437.99" y="-174.298" font-family="Times,serif" font-size="14.00">&lt;blk&gt;:0/0</text>
</g>
<!-- 12&#45;&gt;13 -->
<g id="edge29" class="edge"><title>12&#45;&gt;13</title>
<path fill="none" stroke="black" d="M1456.82,-127.881C1472.67,-123.333 1496.2,-116.578 1515.25,-111.109"/>
<polygon fill="black" stroke="black" points="1516.37,-114.429 1525.02,-108.306 1514.44,-107.701 1516.37,-114.429"/>
<text text-anchor="middle" x="1490.99" y="-125.8" font-family="Times,serif" font-size="14.00">&#45;1:&#45;1/0</text>
</g>
</g>
</svg>
