<?xml version="1.0" encoding="UTF-8" standalone="no"?>
<!DOCTYPE svg PUBLIC "-//W3C//DTD SVG 1.1//EN"
 "http://www.w3.org/Graphics/SVG/1.1/DTD/svg11.dtd">
<!-- Generated by graphviz version 2.38.0 (20140413.2041)
 -->
<!-- Title: WFST Pages: 1 -->
<svg width="612pt" height="5pt"
 viewBox="0.00 0.00 612.00 5.09" xmlns="http://www.w3.org/2000/svg" xmlns:xlink="http://www.w3.org/1999/xlink">
<g id="graph0" class="graph" transform="scale(0.0926167 0.0926167) rotate(0) translate(4 50.9965)">
<title>WFST</title>
<polygon fill="white" stroke="none" points="-4,4 -4,-50.9965 6603.88,-50.9965 6603.88,4 -4,4"/>
<!-- 0 -->
<g id="node1" class="node"><title>0</title>
<ellipse fill="none" stroke="black" stroke-width="2" cx="18" cy="-23.4983" rx="18" ry="18"/>
<text text-anchor="middle" x="18" y="-19.7983" font-family="Times,serif" font-size="14.00">0</text>
</g>
<!-- 1 -->
<g id="node2" class="node"><title>1</title>
<ellipse fill="none" stroke="black" stroke-width="2" cx="195" cy="-23.4983" rx="18" ry="18"/>
<text text-anchor="middle" x="195" y="-19.7983" font-family="Times,serif" font-size="14.00">1</text>
</g>
<!-- 0&#45;&gt;1 -->
<g id="edge1" class="edge"><title>0&#45;&gt;1</title>
<path fill="none" stroke="black" d="M36.0984,-23.4983C66.4178,-23.4983 129.844,-23.4983 166.412,-23.4983"/>
<polygon fill="black" stroke="black" points="166.832,-26.9984 176.832,-23.4983 166.832,-19.9984 166.832,-26.9984"/>
<text text-anchor="middle" x="106.5" y="-27.2983" font-family="Times,serif" font-size="14.00">123:123/&#45;317998.97</text>
</g>
<!-- 2 -->
<g id="node3" class="node"><title>2</title>
<ellipse fill="none" stroke="black" stroke-width="2" cx="352" cy="-23.4983" rx="18" ry="18"/>
<text text-anchor="middle" x="352" y="-19.7983" font-family="Times,serif" font-size="14.00">2</text>
</g>
<!-- 1&#45;&gt;2 -->
<g id="edge2" class="edge"><title>1&#45;&gt;2</title>
<path fill="none" stroke="black" d="M213.18,-23.4983C239.832,-23.4983 291.391,-23.4983 323.335,-23.4983"/>
<polygon fill="black" stroke="black" points="323.743,-26.9984 333.743,-23.4983 323.743,-19.9984 323.743,-26.9984"/>
<text text-anchor="middle" x="273.5" y="-27.2983" font-family="Times,serif" font-size="14.00">88:88/&#45;89595.77</text>
</g>
<!-- 3 -->
<g id="node4" class="node"><title>3</title>
<ellipse fill="none" stroke="black" stroke-width="2" cx="522" cy="-23.4983" rx="18" ry="18"/>
<text text-anchor="middle" x="522" y="-19.7983" font-family="Times,serif" font-size="14.00">3</text>
</g>
<!-- 2&#45;&gt;3 -->
<g id="edge3" class="edge"><title>2&#45;&gt;3</title>
<path fill="none" stroke="black" d="M370.033,-23.4983C399.088,-23.4983 458.477,-23.4983 493.482,-23.4983"/>
<polygon fill="black" stroke="black" points="493.922,-26.9984 503.922,-23.4983 493.922,-19.9984 493.922,-26.9984"/>
<text text-anchor="middle" x="437" y="-27.2983" font-family="Times,serif" font-size="14.00">180:180/&#45;95242.52</text>
</g>
<!-- 4 -->
<g id="node5" class="node"><title>4</title>
<ellipse fill="none" stroke="black" stroke-width="2" cx="679" cy="-23.4983" rx="18" ry="18"/>
<text text-anchor="middle" x="679" y="-19.7983" font-family="Times,serif" font-size="14.00">4</text>
</g>
<!-- 3&#45;&gt;4 -->
<g id="edge4" class="edge"><title>3&#45;&gt;4</title>
<path fill="none" stroke="black" d="M540.18,-23.4983C566.832,-23.4983 618.391,-23.4983 650.335,-23.4983"/>
<polygon fill="black" stroke="black" points="650.743,-26.9984 660.743,-23.4983 650.743,-19.9984 650.743,-26.9984"/>
<text text-anchor="middle" x="600.5" y="-27.2983" font-family="Times,serif" font-size="14.00">15:15/&#45;92694.34</text>
</g>
<!-- 5 -->
<g id="node6" class="node"><title>5</title>
<ellipse fill="none" stroke="black" stroke-width="2" cx="836" cy="-23.4983" rx="18" ry="18"/>
<text text-anchor="middle" x="836" y="-19.7983" font-family="Times,serif" font-size="14.00">5</text>
</g>
<!-- 4&#45;&gt;5 -->
<g id="edge5" class="edge"><title>4&#45;&gt;5</title>
<path fill="none" stroke="black" d="M697.18,-23.4983C723.832,-23.4983 775.391,-23.4983 807.335,-23.4983"/>
<polygon fill="black" stroke="black" points="807.743,-26.9984 817.743,-23.4983 807.743,-19.9984 807.743,-26.9984"/>
<text text-anchor="middle" x="757.5" y="-27.2983" font-family="Times,serif" font-size="14.00">15:0/&#45;109237.46</text>
</g>
<!-- 6 -->
<g id="node7" class="node"><title>6</title>
<ellipse fill="none" stroke="black" stroke-width="2" cx="986" cy="-23.4983" rx="18" ry="18"/>
<text text-anchor="middle" x="986" y="-19.7983" font-family="Times,serif" font-size="14.00">6</text>
</g>
<!-- 5&#45;&gt;6 -->
<g id="edge6" class="edge"><title>5&#45;&gt;6</title>
<path fill="none" stroke="black" d="M854.267,-23.4983C879.666,-23.4983 927.349,-23.4983 957.572,-23.4983"/>
<polygon fill="black" stroke="black" points="957.843,-26.9984 967.843,-23.4983 957.843,-19.9984 957.843,-26.9984"/>
<text text-anchor="middle" x="911" y="-27.2983" font-family="Times,serif" font-size="14.00">15:0/&#45;93592.24</text>
</g>
<!-- 7 -->
<g id="node8" class="node"><title>7</title>
<ellipse fill="none" stroke="black" stroke-width="2" cx="1136" cy="-23.4983" rx="18" ry="18"/>
<text text-anchor="middle" x="1136" y="-19.7983" font-family="Times,serif" font-size="14.00">7</text>
</g>
<!-- 6&#45;&gt;7 -->
<g id="edge7" class="edge"><title>6&#45;&gt;7</title>
<path fill="none" stroke="black" d="M1004.27,-23.4983C1029.67,-23.4983 1077.35,-23.4983 1107.57,-23.4983"/>
<polygon fill="black" stroke="black" points="1107.84,-26.9984 1117.84,-23.4983 1107.84,-19.9984 1107.84,-26.9984"/>
<text text-anchor="middle" x="1061" y="-27.2983" font-family="Times,serif" font-size="14.00">15:0/&#45;86243.57</text>
</g>
<!-- 8 -->
<g id="node9" class="node"><title>8</title>
<ellipse fill="none" stroke="black" stroke-width="2" cx="1286" cy="-23.4983" rx="18" ry="18"/>
<text text-anchor="middle" x="1286" y="-19.7983" font-family="Times,serif" font-size="14.00">8</text>
</g>
<!-- 7&#45;&gt;8 -->
<g id="edge8" class="edge"><title>7&#45;&gt;8</title>
<path fill="none" stroke="black" d="M1154.27,-23.4983C1179.67,-23.4983 1227.35,-23.4983 1257.57,-23.4983"/>
<polygon fill="black" stroke="black" points="1257.84,-26.9984 1267.84,-23.4983 1257.84,-19.9984 1257.84,-26.9984"/>
<text text-anchor="middle" x="1211" y="-27.2983" font-family="Times,serif" font-size="14.00">15:0/&#45;88064.59</text>
</g>
<!-- 9 -->
<g id="node10" class="node"><title>9</title>
<ellipse fill="none" stroke="black" stroke-width="2" cx="1436" cy="-23.4983" rx="18" ry="18"/>
<text text-anchor="middle" x="1436" y="-19.7983" font-family="Times,serif" font-size="14.00">9</text>
</g>
<!-- 8&#45;&gt;9 -->
<g id="edge9" class="edge"><title>8&#45;&gt;9</title>
<path fill="none" stroke="black" d="M1304.27,-23.4983C1329.67,-23.4983 1377.35,-23.4983 1407.57,-23.4983"/>
<polygon fill="black" stroke="black" points="1407.84,-26.9984 1417.84,-23.4983 1407.84,-19.9984 1407.84,-26.9984"/>
<text text-anchor="middle" x="1361" y="-27.2983" font-family="Times,serif" font-size="14.00">15:0/&#45;77632.91</text>
</g>
<!-- 10 -->
<g id="node11" class="node"><title>10</title>
<ellipse fill="none" stroke="black" stroke-width="2" cx="1587.5" cy="-23.4983" rx="19.4965" ry="19.4965"/>
<text text-anchor="middle" x="1587.5" y="-19.7983" font-family="Times,serif" font-size="14.00">10</text>
</g>
<!-- 9&#45;&gt;10 -->
<g id="edge10" class="edge"><title>9&#45;&gt;10</title>
<path fill="none" stroke="black" d="M1454.15,-23.4983C1479.4,-23.4983 1526.89,-23.4983 1557.58,-23.4983"/>
<polygon fill="black" stroke="black" points="1557.68,-26.9984 1567.68,-23.4983 1557.68,-19.9984 1557.68,-26.9984"/>
<text text-anchor="middle" x="1511" y="-27.2983" font-family="Times,serif" font-size="14.00">15:0/&#45;90475.59</text>
</g>
<!-- 11 -->
<g id="node12" class="node"><title>11</title>
<ellipse fill="none" stroke="black" stroke-width="2" cx="1740.49" cy="-23.4983" rx="19.4965" ry="19.4965"/>
<text text-anchor="middle" x="1740.49" y="-19.7983" font-family="Times,serif" font-size="14.00">11</text>
</g>
<!-- 10&#45;&gt;11 -->
<g id="edge11" class="edge"><title>10&#45;&gt;11</title>
<path fill="none" stroke="black" d="M1607.01,-23.4983C1632.94,-23.4983 1680.29,-23.4983 1710.8,-23.4983"/>
<polygon fill="black" stroke="black" points="1710.83,-26.9984 1720.83,-23.4983 1710.83,-19.9984 1710.83,-26.9984"/>
<text text-anchor="middle" x="1664" y="-27.2983" font-family="Times,serif" font-size="14.00">15:0/&#45;82610.59</text>
</g>
<!-- 12 -->
<g id="node13" class="node"><title>12</title>
<ellipse fill="none" stroke="black" stroke-width="2" cx="1893.49" cy="-23.4983" rx="19.4965" ry="19.4965"/>
<text text-anchor="middle" x="1893.49" y="-19.7983" font-family="Times,serif" font-size="14.00">12</text>
</g>
<!-- 11&#45;&gt;12 -->
<g id="edge12" class="edge"><title>11&#45;&gt;12</title>
<path fill="none" stroke="black" d="M1760.01,-23.4983C1785.93,-23.4983 1833.29,-23.4983 1863.8,-23.4983"/>
<polygon fill="black" stroke="black" points="1863.82,-26.9984 1873.82,-23.4983 1863.82,-19.9984 1863.82,-26.9984"/>
<text text-anchor="middle" x="1816.99" y="-27.2983" font-family="Times,serif" font-size="14.00">15:0/&#45;88979.85</text>
</g>
<!-- 13 -->
<g id="node14" class="node"><title>13</title>
<ellipse fill="none" stroke="black" stroke-width="2" cx="2046.49" cy="-23.4983" rx="19.4965" ry="19.4965"/>
<text text-anchor="middle" x="2046.49" y="-19.7983" font-family="Times,serif" font-size="14.00">13</text>
</g>
<!-- 12&#45;&gt;13 -->
<g id="edge13" class="edge"><title>12&#45;&gt;13</title>
<path fill="none" stroke="black" d="M1913.01,-23.4983C1938.93,-23.4983 1986.28,-23.4983 2016.79,-23.4983"/>
<polygon fill="black" stroke="black" points="2016.82,-26.9984 2026.82,-23.4983 2016.82,-19.9984 2016.82,-26.9984"/>
<text text-anchor="middle" x="1969.99" y="-27.2983" font-family="Times,serif" font-size="14.00">15:0/&#45;94944.97</text>
</g>
<!-- 14 -->
<g id="node15" class="node"><title>14</title>
<ellipse fill="none" stroke="black" stroke-width="2" cx="2206.48" cy="-23.4983" rx="19.4965" ry="19.4965"/>
<text text-anchor="middle" x="2206.48" y="-19.7983" font-family="Times,serif" font-size="14.00">14</text>
</g>
<!-- 13&#45;&gt;14 -->
<g id="edge14" class="edge"><title>13&#45;&gt;14</title>
<path fill="none" stroke="black" d="M2066.23,-23.4983C2093.55,-23.4983 2144.54,-23.4983 2176.66,-23.4983"/>
<polygon fill="black" stroke="black" points="2176.76,-26.9984 2186.76,-23.4983 2176.76,-19.9984 2176.76,-26.9984"/>
<text text-anchor="middle" x="2126.49" y="-27.2983" font-family="Times,serif" font-size="14.00">15:0/&#45;139603.78</text>
</g>
<!-- 15 -->
<g id="node16" class="node"><title>15</title>
<ellipse fill="none" stroke="black" stroke-width="2" cx="2359.48" cy="-23.4983" rx="19.4965" ry="19.4965"/>
<text text-anchor="middle" x="2359.48" y="-19.7983" font-family="Times,serif" font-size="14.00">15</text>
</g>
<!-- 14&#45;&gt;15 -->
<g id="edge15" class="edge"><title>14&#45;&gt;15</title>
<path fill="none" stroke="black" d="M2226,-23.4983C2251.92,-23.4983 2299.28,-23.4983 2329.79,-23.4983"/>
<polygon fill="black" stroke="black" points="2329.81,-26.9984 2339.81,-23.4983 2329.81,-19.9984 2329.81,-26.9984"/>
<text text-anchor="middle" x="2282.98" y="-27.2983" font-family="Times,serif" font-size="14.00">15:0/&#45;98350.32</text>
</g>
<!-- 16 -->
<g id="node17" class="node"><title>16</title>
<ellipse fill="none" stroke="black" stroke-width="2" cx="2512.48" cy="-23.4983" rx="19.4965" ry="19.4965"/>
<text text-anchor="middle" x="2512.48" y="-19.7983" font-family="Times,serif" font-size="14.00">16</text>
</g>
<!-- 15&#45;&gt;16 -->
<g id="edge16" class="edge"><title>15&#45;&gt;16</title>
<path fill="none" stroke="black" d="M2379,-23.4983C2404.92,-23.4983 2452.27,-23.4983 2482.78,-23.4983"/>
<polygon fill="black" stroke="black" points="2482.81,-26.9984 2492.81,-23.4983 2482.81,-19.9984 2482.81,-26.9984"/>
<text text-anchor="middle" x="2435.98" y="-27.2983" font-family="Times,serif" font-size="14.00">15:0/&#45;89915.25</text>
</g>
<!-- 17 -->
<g id="node18" class="node"><title>17</title>
<ellipse fill="none" stroke="black" stroke-width="2" cx="2665.47" cy="-23.4983" rx="19.4965" ry="19.4965"/>
<text text-anchor="middle" x="2665.47" y="-19.7983" font-family="Times,serif" font-size="14.00">17</text>
</g>
<!-- 16&#45;&gt;17 -->
<g id="edge17" class="edge"><title>16&#45;&gt;17</title>
<path fill="none" stroke="black" d="M2531.99,-23.4983C2557.92,-23.4983 2605.27,-23.4983 2635.78,-23.4983"/>
<polygon fill="black" stroke="black" points="2635.81,-26.9984 2645.81,-23.4983 2635.81,-19.9984 2635.81,-26.9984"/>
<text text-anchor="middle" x="2588.98" y="-27.2983" font-family="Times,serif" font-size="14.00">15:0/&#45;78220.62</text>
</g>
<!-- 18 -->
<g id="node19" class="node"><title>18</title>
<ellipse fill="none" stroke="black" stroke-width="2" cx="2818.47" cy="-23.4983" rx="19.4965" ry="19.4965"/>
<text text-anchor="middle" x="2818.47" y="-19.7983" font-family="Times,serif" font-size="14.00">18</text>
</g>
<!-- 17&#45;&gt;18 -->
<g id="edge18" class="edge"><title>17&#45;&gt;18</title>
<path fill="none" stroke="black" d="M2684.99,-23.4983C2710.91,-23.4983 2758.27,-23.4983 2788.78,-23.4983"/>
<polygon fill="black" stroke="black" points="2788.8,-26.9984 2798.8,-23.4983 2788.8,-19.9984 2788.8,-26.9984"/>
<text text-anchor="middle" x="2741.97" y="-27.2983" font-family="Times,serif" font-size="14.00">15:0/&#45;81228.94</text>
</g>
<!-- 19 -->
<g id="node20" class="node"><title>19</title>
<ellipse fill="none" stroke="black" stroke-width="2" cx="2971.47" cy="-23.4983" rx="19.4965" ry="19.4965"/>
<text text-anchor="middle" x="2971.47" y="-19.7983" font-family="Times,serif" font-size="14.00">19</text>
</g>
<!-- 18&#45;&gt;19 -->
<g id="edge19" class="edge"><title>18&#45;&gt;19</title>
<path fill="none" stroke="black" d="M2837.99,-23.4983C2863.91,-23.4983 2911.26,-23.4983 2941.77,-23.4983"/>
<polygon fill="black" stroke="black" points="2941.8,-26.9984 2951.8,-23.4983 2941.8,-19.9984 2941.8,-26.9984"/>
<text text-anchor="middle" x="2894.97" y="-27.2983" font-family="Times,serif" font-size="14.00">15:0/&#45;72427.58</text>
</g>
<!-- 20 -->
<g id="node21" class="node"><title>20</title>
<ellipse fill="none" stroke="black" stroke-width="2" cx="3124.46" cy="-23.4983" rx="19.4965" ry="19.4965"/>
<text text-anchor="middle" x="3124.46" y="-19.7983" font-family="Times,serif" font-size="14.00">20</text>
</g>
<!-- 19&#45;&gt;20 -->
<g id="edge20" class="edge"><title>19&#45;&gt;20</title>
<path fill="none" stroke="black" d="M2990.98,-23.4983C3016.91,-23.4983 3064.26,-23.4983 3094.77,-23.4983"/>
<polygon fill="black" stroke="black" points="3094.8,-26.9984 3104.8,-23.4983 3094.8,-19.9984 3094.8,-26.9984"/>
<text text-anchor="middle" x="3047.97" y="-27.2983" font-family="Times,serif" font-size="14.00">15:0/&#45;78719.45</text>
</g>
<!-- 21 -->
<g id="node22" class="node"><title>21</title>
<ellipse fill="none" stroke="black" stroke-width="2" cx="3277.46" cy="-23.4983" rx="19.4965" ry="19.4965"/>
<text text-anchor="middle" x="3277.46" y="-19.7983" font-family="Times,serif" font-size="14.00">21</text>
</g>
<!-- 20&#45;&gt;21 -->
<g id="edge21" class="edge"><title>20&#45;&gt;21</title>
<path fill="none" stroke="black" d="M3143.98,-23.4983C3169.9,-23.4983 3217.26,-23.4983 3247.77,-23.4983"/>
<polygon fill="black" stroke="black" points="3247.79,-26.9984 3257.79,-23.4983 3247.79,-19.9984 3247.79,-26.9984"/>
<text text-anchor="middle" x="3200.96" y="-27.2983" font-family="Times,serif" font-size="14.00">15:0/&#45;71441.33</text>
</g>
<!-- 22 -->
<g id="node23" class="node"><title>22</title>
<ellipse fill="none" stroke="black" stroke-width="2" cx="3430.46" cy="-23.4983" rx="19.4965" ry="19.4965"/>
<text text-anchor="middle" x="3430.46" y="-19.7983" font-family="Times,serif" font-size="14.00">22</text>
</g>
<!-- 21&#45;&gt;22 -->
<g id="edge22" class="edge"><title>21&#45;&gt;22</title>
<path fill="none" stroke="black" d="M3296.98,-23.4983C3322.9,-23.4983 3370.25,-23.4983 3400.76,-23.4983"/>
<polygon fill="black" stroke="black" points="3400.79,-26.9984 3410.79,-23.4983 3400.79,-19.9984 3400.79,-26.9984"/>
<text text-anchor="middle" x="3353.96" y="-27.2983" font-family="Times,serif" font-size="14.00">15:0/&#45;70332.68</text>
</g>
<!-- 23 -->
<g id="node24" class="node"><title>23</title>
<ellipse fill="none" stroke="black" stroke-width="2" cx="3583.45" cy="-23.4983" rx="19.4965" ry="19.4965"/>
<text text-anchor="middle" x="3583.45" y="-19.7983" font-family="Times,serif" font-size="14.00">23</text>
</g>
<!-- 22&#45;&gt;23 -->
<g id="edge23" class="edge"><title>22&#45;&gt;23</title>
<path fill="none" stroke="black" d="M3449.97,-23.4983C3475.9,-23.4983 3523.25,-23.4983 3553.76,-23.4983"/>
<polygon fill="black" stroke="black" points="3553.79,-26.9984 3563.79,-23.4983 3553.79,-19.9984 3553.79,-26.9984"/>
<text text-anchor="middle" x="3506.96" y="-27.2983" font-family="Times,serif" font-size="14.00">15:0/&#45;77970.75</text>
</g>
<!-- 24 -->
<g id="node25" class="node"><title>24</title>
<ellipse fill="none" stroke="black" stroke-width="2" cx="3736.45" cy="-23.4983" rx="19.4965" ry="19.4965"/>
<text text-anchor="middle" x="3736.45" y="-19.7983" font-family="Times,serif" font-size="14.00">24</text>
</g>
<!-- 23&#45;&gt;24 -->
<g id="edge24" class="edge"><title>23&#45;&gt;24</title>
<path fill="none" stroke="black" d="M3602.97,-23.4983C3628.89,-23.4983 3676.25,-23.4983 3706.76,-23.4983"/>
<polygon fill="black" stroke="black" points="3706.78,-26.9984 3716.78,-23.4983 3706.78,-19.9984 3706.78,-26.9984"/>
<text text-anchor="middle" x="3659.95" y="-27.2983" font-family="Times,serif" font-size="14.00">15:0/&#45;69588.73</text>
</g>
<!-- 25 -->
<g id="node26" class="node"><title>25</title>
<ellipse fill="none" stroke="black" stroke-width="2" cx="3889.45" cy="-23.4983" rx="19.4965" ry="19.4965"/>
<text text-anchor="middle" x="3889.45" y="-19.7983" font-family="Times,serif" font-size="14.00">25</text>
</g>
<!-- 24&#45;&gt;25 -->
<g id="edge25" class="edge"><title>24&#45;&gt;25</title>
<path fill="none" stroke="black" d="M3755.96,-23.4983C3781.89,-23.4983 3829.24,-23.4983 3859.75,-23.4983"/>
<polygon fill="black" stroke="black" points="3859.78,-26.9984 3869.78,-23.4983 3859.78,-19.9984 3859.78,-26.9984"/>
<text text-anchor="middle" x="3812.95" y="-27.2983" font-family="Times,serif" font-size="14.00">15:0/&#45;69218.36</text>
</g>
<!-- 26 -->
<g id="node27" class="node"><title>26</title>
<ellipse fill="none" stroke="black" stroke-width="2" cx="4025.44" cy="-23.4983" rx="19.4965" ry="19.4965"/>
<text text-anchor="middle" x="4025.44" y="-19.7983" font-family="Times,serif" font-size="14.00">26</text>
</g>
<!-- 25&#45;&gt;26 -->
<g id="edge26" class="edge"><title>25&#45;&gt;26</title>
<path fill="none" stroke="black" d="M3909.08,-23.4983C3931.45,-23.4983 3969.24,-23.4983 3995.44,-23.4983"/>
<polygon fill="black" stroke="black" points="3995.54,-26.9984 4005.54,-23.4983 3995.54,-19.9984 3995.54,-26.9984"/>
<text text-anchor="middle" x="3957.44" y="-27.2983" font-family="Times,serif" font-size="14.00">15:0/&#45;78679</text>
</g>
<!-- 27 -->
<g id="node28" class="node"><title>27</title>
<ellipse fill="none" stroke="black" stroke-width="2" cx="4178.44" cy="-23.4983" rx="19.4965" ry="19.4965"/>
<text text-anchor="middle" x="4178.44" y="-19.7983" font-family="Times,serif" font-size="14.00">27</text>
</g>
<!-- 26&#45;&gt;27 -->
<g id="edge27" class="edge"><title>26&#45;&gt;27</title>
<path fill="none" stroke="black" d="M4044.96,-23.4983C4070.88,-23.4983 4118.24,-23.4983 4148.75,-23.4983"/>
<polygon fill="black" stroke="black" points="4148.77,-26.9984 4158.77,-23.4983 4148.77,-19.9984 4148.77,-26.9984"/>
<text text-anchor="middle" x="4101.94" y="-27.2983" font-family="Times,serif" font-size="14.00">15:0/&#45;68339.19</text>
</g>
<!-- 28 -->
<g id="node29" class="node"><title>28</title>
<ellipse fill="none" stroke="black" stroke-width="2" cx="4331.44" cy="-23.4983" rx="19.4965" ry="19.4965"/>
<text text-anchor="middle" x="4331.44" y="-19.7983" font-family="Times,serif" font-size="14.00">28</text>
</g>
<!-- 27&#45;&gt;28 -->
<g id="edge28" class="edge"><title>27&#45;&gt;28</title>
<path fill="none" stroke="black" d="M4197.95,-23.4983C4223.88,-23.4983 4271.23,-23.4983 4301.74,-23.4983"/>
<polygon fill="black" stroke="black" points="4301.77,-26.9984 4311.77,-23.4983 4301.77,-19.9984 4301.77,-26.9984"/>
<text text-anchor="middle" x="4254.94" y="-27.2983" font-family="Times,serif" font-size="14.00">15:0/&#45;82871.34</text>
</g>
<!-- 29 -->
<g id="node30" class="node"><title>29</title>
<ellipse fill="none" stroke="black" stroke-width="2" cx="4484.43" cy="-23.4983" rx="19.4965" ry="19.4965"/>
<text text-anchor="middle" x="4484.43" y="-19.7983" font-family="Times,serif" font-size="14.00">29</text>
</g>
<!-- 28&#45;&gt;29 -->
<g id="edge29" class="edge"><title>28&#45;&gt;29</title>
<path fill="none" stroke="black" d="M4350.95,-23.4983C4376.87,-23.4983 4424.23,-23.4983 4454.74,-23.4983"/>
<polygon fill="black" stroke="black" points="4454.77,-26.9984 4464.77,-23.4983 4454.77,-19.9984 4454.77,-26.9984"/>
<text text-anchor="middle" x="4407.93" y="-27.2983" font-family="Times,serif" font-size="14.00">15:0/&#45;72514.19</text>
</g>
<!-- 30 -->
<g id="node31" class="node"><title>30</title>
<ellipse fill="none" stroke="black" stroke-width="2" cx="4630.43" cy="-23.4983" rx="19.4965" ry="19.4965"/>
<text text-anchor="middle" x="4630.43" y="-19.7983" font-family="Times,serif" font-size="14.00">30</text>
</g>
<!-- 29&#45;&gt;30 -->
<g id="edge30" class="edge"><title>29&#45;&gt;30</title>
<path fill="none" stroke="black" d="M4503.96,-23.4983C4528.35,-23.4983 4571.47,-23.4983 4600.25,-23.4983"/>
<polygon fill="black" stroke="black" points="4600.51,-26.9984 4610.51,-23.4983 4600.51,-19.9984 4600.51,-26.9984"/>
<text text-anchor="middle" x="4557.43" y="-27.2983" font-family="Times,serif" font-size="14.00">15:0/&#45;82965.7</text>
</g>
<!-- 31 -->
<g id="node32" class="node"><title>31</title>
<ellipse fill="none" stroke="black" stroke-width="2" cx="4783.43" cy="-23.4983" rx="19.4965" ry="19.4965"/>
<text text-anchor="middle" x="4783.43" y="-19.7983" font-family="Times,serif" font-size="14.00">31</text>
</g>
<!-- 30&#45;&gt;31 -->
<g id="edge31" class="edge"><title>30&#45;&gt;31</title>
<path fill="none" stroke="black" d="M4649.94,-23.4983C4675.87,-23.4983 4723.22,-23.4983 4753.73,-23.4983"/>
<polygon fill="black" stroke="black" points="4753.76,-26.9984 4763.76,-23.4983 4753.76,-19.9984 4753.76,-26.9984"/>
<text text-anchor="middle" x="4706.93" y="-27.2983" font-family="Times,serif" font-size="14.00">15:0/&#45;94787.09</text>
</g>
<!-- 32 -->
<g id="node33" class="node"><title>32</title>
<ellipse fill="none" stroke="black" stroke-width="2" cx="4936.42" cy="-23.4983" rx="19.4965" ry="19.4965"/>
<text text-anchor="middle" x="4936.42" y="-19.7983" font-family="Times,serif" font-size="14.00">32</text>
</g>
<!-- 31&#45;&gt;32 -->
<g id="edge32" class="edge"><title>31&#45;&gt;32</title>
<path fill="none" stroke="black" d="M4802.94,-23.4983C4828.86,-23.4983 4876.22,-23.4983 4906.73,-23.4983"/>
<polygon fill="black" stroke="black" points="4906.76,-26.9984 4916.76,-23.4983 4906.76,-19.9984 4906.76,-26.9984"/>
<text text-anchor="middle" x="4859.92" y="-27.2983" font-family="Times,serif" font-size="14.00">15:0/&#45;88765.27</text>
</g>
<!-- 33 -->
<g id="node34" class="node"><title>33</title>
<ellipse fill="none" stroke="black" stroke-width="2" cx="5089.42" cy="-23.4983" rx="19.4965" ry="19.4965"/>
<text text-anchor="middle" x="5089.42" y="-19.7983" font-family="Times,serif" font-size="14.00">33</text>
</g>
<!-- 32&#45;&gt;33 -->
<g id="edge33" class="edge"><title>32&#45;&gt;33</title>
<path fill="none" stroke="black" d="M4955.94,-23.4983C4981.86,-23.4983 5029.21,-23.4983 5059.73,-23.4983"/>
<polygon fill="black" stroke="black" points="5059.75,-26.9984 5069.75,-23.4983 5059.75,-19.9984 5059.75,-26.9984"/>
<text text-anchor="middle" x="5012.92" y="-27.2983" font-family="Times,serif" font-size="14.00">15:0/&#45;91652.75</text>
</g>
<!-- 34 -->
<g id="node35" class="node"><title>34</title>
<ellipse fill="none" stroke="black" stroke-width="2" cx="5242.42" cy="-23.4983" rx="19.4965" ry="19.4965"/>
<text text-anchor="middle" x="5242.42" y="-19.7983" font-family="Times,serif" font-size="14.00">34</text>
</g>
<!-- 33&#45;&gt;34 -->
<g id="edge34" class="edge"><title>33&#45;&gt;34</title>
<path fill="none" stroke="black" d="M5108.93,-23.4983C5134.86,-23.4983 5182.21,-23.4983 5212.72,-23.4983"/>
<polygon fill="black" stroke="black" points="5212.75,-26.9984 5222.75,-23.4983 5212.75,-19.9984 5212.75,-26.9984"/>
<text text-anchor="middle" x="5165.92" y="-27.2983" font-family="Times,serif" font-size="14.00">15:0/&#45;93940.48</text>
</g>
<!-- 35 -->
<g id="node36" class="node"><title>35</title>
<ellipse fill="none" stroke="black" stroke-width="2" cx="5395.41" cy="-23.4983" rx="19.4965" ry="19.4965"/>
<text text-anchor="middle" x="5395.41" y="-19.7983" font-family="Times,serif" font-size="14.00">35</text>
</g>
<!-- 34&#45;&gt;35 -->
<g id="edge35" class="edge"><title>34&#45;&gt;35</title>
<path fill="none" stroke="black" d="M5261.93,-23.4983C5287.85,-23.4983 5335.21,-23.4983 5365.72,-23.4983"/>
<polygon fill="black" stroke="black" points="5365.75,-26.9984 5375.75,-23.4983 5365.75,-19.9984 5365.75,-26.9984"/>
<text text-anchor="middle" x="5318.91" y="-27.2983" font-family="Times,serif" font-size="14.00">15:0/&#45;95287.42</text>
</g>
<!-- 36 -->
<g id="node37" class="node"><title>36</title>
<ellipse fill="none" stroke="black" stroke-width="2" cx="5555.41" cy="-23.4983" rx="19.4965" ry="19.4965"/>
<text text-anchor="middle" x="5555.41" y="-19.7983" font-family="Times,serif" font-size="14.00">36</text>
</g>
<!-- 35&#45;&gt;36 -->
<g id="edge36" class="edge"><title>35&#45;&gt;36</title>
<path fill="none" stroke="black" d="M5415.16,-23.4983C5442.48,-23.4983 5493.47,-23.4983 5525.58,-23.4983"/>
<polygon fill="black" stroke="black" points="5525.69,-26.9984 5535.69,-23.4983 5525.69,-19.9984 5525.69,-26.9984"/>
<text text-anchor="middle" x="5475.41" y="-27.2983" font-family="Times,serif" font-size="14.00">15:0/&#45;106715.55</text>
</g>
<!-- 37 -->
<g id="node38" class="node"><title>37</title>
<ellipse fill="none" stroke="black" stroke-width="2" cx="5708.4" cy="-23.4983" rx="19.4965" ry="19.4965"/>
<text text-anchor="middle" x="5708.4" y="-19.7983" font-family="Times,serif" font-size="14.00">37</text>
</g>
<!-- 36&#45;&gt;37 -->
<g id="edge37" class="edge"><title>36&#45;&gt;37</title>
<path fill="none" stroke="black" d="M5574.92,-23.4983C5600.85,-23.4983 5648.2,-23.4983 5678.71,-23.4983"/>
<polygon fill="black" stroke="black" points="5678.74,-26.9984 5688.74,-23.4983 5678.74,-19.9984 5678.74,-26.9984"/>
<text text-anchor="middle" x="5631.91" y="-27.2983" font-family="Times,serif" font-size="14.00">15:0/&#45;92763.91</text>
</g>
<!-- 38 -->
<g id="node39" class="node"><title>38</title>
<ellipse fill="none" stroke="black" stroke-width="2" cx="5861.4" cy="-23.4983" rx="19.4965" ry="19.4965"/>
<text text-anchor="middle" x="5861.4" y="-19.7983" font-family="Times,serif" font-size="14.00">38</text>
</g>
<!-- 37&#45;&gt;38 -->
<g id="edge38" class="edge"><title>37&#45;&gt;38</title>
<path fill="none" stroke="black" d="M5727.92,-23.4983C5753.84,-23.4983 5801.2,-23.4983 5831.71,-23.4983"/>
<polygon fill="black" stroke="black" points="5831.73,-26.9984 5841.73,-23.4983 5831.73,-19.9984 5831.73,-26.9984"/>
<text text-anchor="middle" x="5784.9" y="-27.2983" font-family="Times,serif" font-size="14.00">15:0/&#45;79141.46</text>
</g>
<!-- 39 -->
<g id="node40" class="node"><title>39</title>
<ellipse fill="none" stroke="black" stroke-width="2" cx="6021.4" cy="-23.4983" rx="19.4965" ry="19.4965"/>
<text text-anchor="middle" x="6021.4" y="-19.7983" font-family="Times,serif" font-size="14.00">39</text>
</g>
<!-- 38&#45;&gt;39 -->
<g id="edge39" class="edge"><title>38&#45;&gt;39</title>
<path fill="none" stroke="black" d="M5881.15,-23.4983C5908.47,-23.4983 5959.45,-23.4983 5991.57,-23.4983"/>
<polygon fill="black" stroke="black" points="5991.68,-26.9984 6001.68,-23.4983 5991.68,-19.9984 5991.68,-26.9984"/>
<text text-anchor="middle" x="5941.4" y="-27.2983" font-family="Times,serif" font-size="14.00">88:88/&#45;59818.67</text>
</g>
<!-- 40 -->
<g id="node41" class="node"><title>40</title>
<ellipse fill="none" stroke="black" stroke-width="2" cx="6174.39" cy="-23.4983" rx="19.4965" ry="19.4965"/>
<text text-anchor="middle" x="6174.39" y="-19.7983" font-family="Times,serif" font-size="14.00">40</text>
</g>
<!-- 39&#45;&gt;40 -->
<g id="edge40" class="edge"><title>39&#45;&gt;40</title>
<path fill="none" stroke="black" d="M6040.91,-23.4983C6066.84,-23.4983 6114.19,-23.4983 6144.7,-23.4983"/>
<polygon fill="black" stroke="black" points="6144.73,-26.9984 6154.73,-23.4983 6144.73,-19.9984 6144.73,-26.9984"/>
<text text-anchor="middle" x="6097.9" y="-27.2983" font-family="Times,serif" font-size="14.00">88:0/&#45;98440.37</text>
</g>
<!-- 41 -->
<g id="node42" class="node"><title>41</title>
<ellipse fill="none" stroke="black" stroke-width="2" cx="6320.39" cy="-23.4983" rx="19.4965" ry="19.4965"/>
<text text-anchor="middle" x="6320.39" y="-19.7983" font-family="Times,serif" font-size="14.00">41</text>
</g>
<!-- 40&#45;&gt;41 -->
<g id="edge41" class="edge"><title>40&#45;&gt;41</title>
<path fill="none" stroke="black" d="M6193.92,-23.4983C6218.31,-23.4983 6261.43,-23.4983 6290.21,-23.4983"/>
<polygon fill="black" stroke="black" points="6290.47,-26.9984 6300.47,-23.4983 6290.47,-19.9984 6290.47,-26.9984"/>
<text text-anchor="middle" x="6247.39" y="-27.2983" font-family="Times,serif" font-size="14.00">0:0/&#45;86652.95</text>
</g>
<!-- 42 -->
<g id="node43" class="node"><title>42</title>
<ellipse fill="none" stroke="black" stroke-width="2" cx="6466.39" cy="-23.4983" rx="19.4965" ry="19.4965"/>
<text text-anchor="middle" x="6466.39" y="-19.7983" font-family="Times,serif" font-size="14.00">42</text>
</g>
<!-- 41&#45;&gt;42 -->
<g id="edge42" class="edge"><title>41&#45;&gt;42</title>
<path fill="none" stroke="black" d="M6339.92,-23.4983C6364.3,-23.4983 6407.43,-23.4983 6436.21,-23.4983"/>
<polygon fill="black" stroke="black" points="6436.47,-26.9984 6446.47,-23.4983 6436.47,-19.9984 6436.47,-26.9984"/>
<text text-anchor="middle" x="6393.39" y="-27.2983" font-family="Times,serif" font-size="14.00">0:0/&#45;95121.22</text>
</g>
<!-- 43 -->
<g id="node44" class="node"><title>43</title>
<ellipse fill="none" stroke="black" stroke-width="2" cx="6576.38" cy="-23.4983" rx="19.4968" ry="19.4968"/>
<ellipse fill="none" stroke="black" stroke-width="2" cx="6576.38" cy="-23.4983" rx="23.4965" ry="23.4965"/>
<text text-anchor="middle" x="6576.38" y="-19.7983" font-family="Times,serif" font-size="14.00">43</text>
</g>
<!-- 42&#45;&gt;43 -->
<g id="edge43" class="edge"><title>42&#45;&gt;43</title>
<path fill="none" stroke="black" d="M6486.2,-23.4983C6501.73,-23.4983 6524.14,-23.4983 6542.61,-23.4983"/>
<polygon fill="black" stroke="black" points="6542.67,-26.9984 6552.67,-23.4983 6542.67,-19.9984 6542.67,-26.9984"/>
<text text-anchor="middle" x="6519.39" y="-27.2983" font-family="Times,serif" font-size="14.00">&#45;1:&#45;1/0</text>
</g>
</g>
</svg>
